<svg width="96" height="96" viewBox="0 0 96 96" fill="none" xmlns="http://www.w3.org/2000/svg">
<circle cx="48" cy="48" r="48" fill="#E9CA7D"/>
<path d="M47.9896 9.27901C47.9696 9.29901 47.6896 9.36901 47.3696 9.42901C45.9296 9.67901 44.9896 10.5491 44.3695 12.2091C44.0995 12.9291 43.3895 14.4191 42.1295 17.0091C40.5895 20.1291 40.5595 20.1991 40.4995 20.6991C40.4195 21.4791 40.7695 22.6091 41.4495 23.8291C42.5295 25.7391 44.4295 27.3192 46.3796 27.9092C50.0196 29.0192 54.1996 26.7592 55.8296 22.8092C56.3196 21.6192 56.4496 20.6091 56.2296 19.6791C56.1596 19.3791 55.6396 18.2491 54.7996 16.5491C53.3696 13.6691 53.2596 13.4291 52.9496 12.5691C52.5796 11.5691 52.2896 11.099 51.7396 10.549C51.3096 10.119 51.1096 9.98907 50.6296 9.78907C49.9096 9.47907 48.1196 9.14901 47.9896 9.27901Z" fill="#010101"/>
<path d="M57.5329 24.7992C57.1329 25.3592 56.5029 26.2292 56.1529 26.7292C55.7929 27.2292 55.4029 27.7893 55.2829 27.9493C55.1629 28.1193 54.9929 28.3693 54.8829 28.4993L54.7129 28.7393L55.7129 29.2193C56.2729 29.4893 56.8829 29.7693 57.0729 29.8493C57.2629 29.9393 58.0129 30.2892 58.7529 30.6292C59.4829 30.9793 60.2529 31.3293 60.4529 31.4293C60.6629 31.5293 61.2129 31.7793 61.6929 32.0093C62.1629 32.2293 62.5629 32.3993 62.5629 32.3793C62.5629 32.2893 58.3729 23.7792 58.3229 23.7792C58.2829 23.7892 57.9329 24.2492 57.5329 24.7992Z" fill="#010101"/>
<path d="M38.3113 24.7991C38.1713 25.1191 37.3512 26.8391 36.5012 28.6191C35.6512 30.3992 34.9812 31.8692 35.0212 31.8892C35.0612 31.9092 36.5012 31.2791 38.2412 30.4991C39.9813 29.7191 41.5513 29.0092 41.7413 28.9191C41.9413 28.8391 42.0913 28.7391 42.0913 28.6991C42.0913 28.6591 41.7413 28.1892 41.3013 27.6392C40.8613 27.0892 40.1113 26.1291 39.6213 25.5191C39.1413 24.9091 38.7013 24.3592 38.6513 24.3092C38.5913 24.2492 38.5213 24.3491 38.3113 24.7991Z" fill="#010101"/>
<path d="M46.2309 30.8092C44.5009 30.9892 42.5509 31.4891 40.4709 32.2991C39.5109 32.6691 37.1809 33.8491 36.0109 34.5491L35.1309 35.0791H47.8209C54.961 35.0791 60.481 35.0492 60.431 35.0092C60.101 34.7192 58.951 33.8091 58.531 33.5291C56.181 31.9491 53.441 31.0591 50.1309 30.7891C49.0209 30.7091 47.1309 30.7192 46.2309 30.8092Z" fill="#010101"/>
<path d="M45.3811 37.589L33.131 37.6289L32.701 37.809C31.801 38.199 31.221 38.8689 30.701 40.0989C30.521 40.5289 30.351 40.949 30.331 41.039L30.291 41.209H38.6611C46.2311 41.209 47.0411 41.2289 47.0811 41.3289C47.1011 41.3989 47.1211 48.839 47.1211 57.879V74.3092L47.7311 74.3991C49.1611 74.6091 49.7311 74.4792 50.0111 73.9092L50.1711 73.5691L50.1911 57.3591L50.2111 41.1489L58.4312 41.119C62.9612 41.109 66.6812 41.079 66.7112 41.039C66.7712 40.969 66.1312 39.929 65.5912 39.219C65.1212 38.5989 64.4112 38.019 63.8012 37.759L63.3112 37.5489H60.4712C58.9012 37.5389 52.1111 37.569 45.3811 37.589Z" fill="#010101"/>
<path d="M30.8705 43.8594C29.3905 43.9194 29.1405 44.0594 28.4805 45.1694C27.4805 46.8794 26.8305 48.8894 26.5805 51.0094C26.4805 51.9394 26.5405 54.1494 26.6905 55.2894C27.2205 59.0295 28.8405 62.9895 31.0405 65.8695C32.5205 67.8095 34.6306 69.7395 36.5506 70.8995C36.8206 71.0595 37.0806 71.2295 37.1406 71.2795C37.4106 71.4895 39.2006 72.3495 40.2006 72.7495C41.1806 73.1395 44.9706 74.4595 44.9906 74.4195C45.0006 74.3995 44.9906 67.6795 44.9706 59.4994C44.9306 44.7993 44.9306 44.6293 44.7806 44.3793C44.7006 44.2393 44.5406 44.0594 44.4306 43.9694C44.2206 43.8194 44.2006 43.8194 38.0906 43.8094C34.7106 43.8194 31.4605 43.8294 30.8705 43.8594Z" fill="#010101"/>
<path d="M55.3706 43.9991C53.3206 44.0391 53.0206 44.0592 52.8406 44.1692C52.4906 44.3892 52.3906 44.6992 52.3706 45.5492C52.3606 45.9792 52.3406 52.6892 52.3306 60.4792C52.3106 73.1893 52.3206 74.6393 52.4306 74.5993C52.7206 74.5093 56.6606 73.0793 57.1206 72.8893C59.1006 72.1093 61.0106 71.0093 62.6906 69.6893C63.5506 69.0193 65.2806 67.2893 65.9606 66.4393C67.4906 64.5093 68.7006 62.2793 69.5806 59.7193C70.7907 56.1892 71.1207 52.7193 70.5207 49.7592C70.1107 47.7592 68.9406 45.0692 68.1706 44.3992C67.7006 43.9891 67.7206 43.9892 62.5106 43.9692C59.8606 43.9592 56.6506 43.9791 55.3706 43.9991Z" fill="#010101"/>
<path d="M72.5108 54.1291C72.4208 54.5491 72.1808 55.7592 71.9808 56.8092C71.7808 57.8692 71.5408 59.0891 71.4508 59.5291C71.3608 59.9691 71.3108 60.3492 71.3408 60.3692C71.3608 60.3892 71.6308 60.3391 71.9508 60.2491C72.2708 60.1591 72.7408 60.0292 73.0108 59.9592C73.2808 59.8792 73.8808 59.7292 74.3408 59.5892C74.8108 59.4592 75.2608 59.3292 75.3608 59.3092C75.4508 59.2892 75.5208 59.2392 75.5208 59.2092C75.5208 59.1792 74.8808 57.8492 74.0908 56.2592L72.6608 53.3592L72.5108 54.1291Z" fill="#010101"/>
<path d="M23.79 54.9491C23.61 55.3191 23.33 55.9291 23.16 56.2992C21.76 59.2592 21.5 59.8192 21.5 59.8692C21.5 59.9392 21.79 60.0292 23.09 60.3892C24.68 60.8192 25.65 61.0692 25.67 61.0492C25.69 61.0292 25.55 60.3392 25.2 58.8192C25.07 58.2492 24.88 57.4191 24.79 56.9791C24.69 56.5291 24.53 55.7992 24.43 55.3392C24.33 54.8792 24.21 54.4591 24.18 54.3991C24.13 54.2891 24.04 54.4191 23.79 54.9491Z" fill="#010101"/>
<path d="M75.1401 62.019C74.0801 62.119 73.0501 62.409 72.1001 62.899C69.6401 64.149 68.09 66.3991 67.77 69.1691C67.52 71.3191 68.38 73.8391 69.5301 74.3291C69.7701 74.4291 70.3601 74.4491 74.3301 74.4291C79.3701 74.4091 79.3601 74.4091 80.0901 73.9191C80.8101 73.4391 81.2601 72.4691 81.1701 71.5391C81.1101 70.9091 80.9601 70.409 80.5701 69.579C79.5201 67.369 78.4401 65.119 77.8301 63.929C77.1001 62.479 76.9201 62.249 76.3301 62.049C76.0401 61.939 76.0401 61.939 75.1401 62.019Z" fill="#010101"/>
<path d="M20.6802 62.6492C20.4602 62.7192 20.2502 62.8492 20.1002 63.0192C19.7302 63.4292 16.9801 69.0292 16.3401 70.6492C16.1901 71.0292 16.1601 71.2592 16.1501 71.8292C16.1401 72.4592 16.1701 72.5792 16.3501 72.9492C16.6201 73.4892 17.1301 73.9992 17.6501 74.2492L18.0602 74.4492H22.6402C27.1802 74.4492 27.2202 74.4493 27.5102 74.2893C28.1702 73.9393 28.5202 73.3693 28.8402 72.1593C29.7202 68.7692 27.8102 64.9592 24.4802 63.4492C24.1702 63.3092 23.6002 63.0991 23.2102 62.9791C22.5902 62.7991 22.2702 62.7292 21.2002 62.5592C21.1002 62.5592 20.8702 62.5892 20.6802 62.6492Z" fill="#010101"/>
<path d="M31.1093 72.2193C30.9393 73.3593 30.7893 74.3193 30.7993 74.3493C30.7993 74.3893 32.2493 74.4093 34.0293 74.3993H37.2593L37.0393 74.2193C36.4593 73.7493 31.5693 70.1393 31.4993 70.1293C31.4593 70.1293 31.2893 71.0693 31.1093 72.2193Z" fill="#010101"/>
<path d="M64.1001 70.9594C62.2301 72.3494 60.6201 73.5394 60.0901 73.9394L59.5801 74.3094L62.9101 74.3294C64.7501 74.3394 66.2501 74.3394 66.2701 74.3194C66.2801 74.3094 66.0801 73.4194 65.8201 72.3494C65.5501 71.2694 65.3401 70.3294 65.3401 70.2594C65.3401 70.1894 65.3101 70.1394 65.2801 70.1394C65.2401 70.1294 64.7201 70.5094 64.1001 70.9594Z" fill="#010101"/>
</svg>
