<svg width="96" height="96" viewBox="0 0 96 96" fill="none" xmlns="http://www.w3.org/2000/svg">
<circle cx="48" cy="48" r="48" fill="#E9CA7D"/>
<circle cx="48" cy="48" r="48" fill="#03133B"/>
<path fill-rule="evenodd" clip-rule="evenodd" d="M59.9991 65.9997C69.8405 65.9997 77.8374 58.1013 77.9962 48.2976L77.9986 48C77.9986 64.5682 64.5675 77.9994 47.9994 77.9994C31.4312 77.9994 18 64.5682 18 48H41.9995C41.9995 57.9408 50.0581 65.9997 59.9991 65.9997Z" fill="url(#paint0_linear_513_21368)"/>
<path fill-rule="evenodd" clip-rule="evenodd" d="M36.0015 65.9997C26.1601 65.9997 18.1633 58.1013 18.0044 48.2976L18.002 48C18.002 64.5682 31.4331 77.9994 48.0012 77.9994C64.5695 77.9994 78.0006 64.5682 78.0006 48H54.0012C54.0012 57.9408 45.9425 65.9997 36.0015 65.9997Z" fill="url(#paint1_linear_513_21368)"/>
<path fill-rule="evenodd" clip-rule="evenodd" d="M36.0015 29.9997C26.1601 29.9997 18.1633 37.898 18.0044 47.7017L18.002 47.9993C18.002 31.4312 31.4331 18 48.0012 18C64.5695 18 78.0006 31.4312 78.0006 47.9993H54.0012C54.0012 38.0585 45.9425 29.9997 36.0015 29.9997Z" fill="url(#paint2_linear_513_21368)"/>
<path fill-rule="evenodd" clip-rule="evenodd" d="M59.9991 29.9997C69.8405 29.9997 77.8374 37.898 77.9962 47.7017L77.9986 47.9993C77.9986 31.4312 64.5675 18 47.9994 18C31.4312 18 18 31.4312 18 47.9993H41.9995C41.9995 38.0585 50.0581 29.9997 59.9991 29.9997Z" fill="url(#paint3_linear_513_21368)"/>
<path d="M41.7002 47.6987H18.3008V48.2987H41.7002V47.6987Z" fill="#EF9146"/>
<path d="M77.7002 47.6987H54.3008V48.2987H77.7002V47.6987Z" fill="#E57622"/>
<defs>
<linearGradient id="paint0_linear_513_21368" x1="31.1247" y1="48" x2="32.0622" y2="77.9994" gradientUnits="userSpaceOnUse">
<stop stop-color="#EF9146"/>
<stop offset="1" stop-color="#E0592E"/>
</linearGradient>
<linearGradient id="paint1_linear_513_21368" x1="48.0012" y1="48" x2="48.0012" y2="77.9994" gradientUnits="userSpaceOnUse">
<stop stop-color="#E57722"/>
<stop offset="1" stop-color="#F2B24C"/>
</linearGradient>
<linearGradient id="paint2_linear_513_21368" x1="62.0387" y1="47.9993" x2="62.0387" y2="16.7264" gradientUnits="userSpaceOnUse">
<stop stop-color="#E57722"/>
<stop offset="1" stop-color="#DD4A33"/>
</linearGradient>
<linearGradient id="paint3_linear_513_21368" x1="30.1872" y1="47.9993" x2="30.1872" y2="18" gradientUnits="userSpaceOnUse">
<stop stop-color="#EF9046"/>
<stop offset="1" stop-color="#F3C44F"/>
</linearGradient>
</defs>
</svg>
