<svg width="108" height="108" viewBox="0 0 108 108" fill="none" xmlns="http://www.w3.org/2000/svg">
<g clip-path="url(#clip0_213_524)">
<circle cx="54" cy="54" r="54" fill="#C4C4C4"/>
<circle cx="54" cy="54" r="54" fill="url(#paint0_radial_213_524)"/>
<path d="M28.5 36L37 28L38 27.5C40 30.3 49.8333 31.3333 54.5 31.5C61.7 31.1 69.1667 28.3333 72 27L80.5 36.5C74.9 39.3 77.5 47.6667 79.5 51.5C84.3 57.1 84.5 64.5 84 67.5C83.6 75.1 75.1667 79.3333 71 80.5C61 80.5 55.5 85.1667 54 87.5C54 83.5 41.3333 80.8333 35 80C19 72.4 24.3333 57.1667 29 50.5C33.4 43.3 30.5 37.8333 28.5 36Z" fill="#151613"/>
<path d="M38.7441 19L38.0414 21.2541H35.6884L37.6084 22.6202L36.9057 24.8742L38.788 23.4709L40.7017 24.837L39.9551 22.5953L41.8374 21.1857H39.4908L38.7441 19ZM69.0937 19L68.3973 21.2541H66.0381L67.9581 22.6202L67.2553 24.8742L69.1377 23.4709L71.0577 24.837L70.3047 22.5953L72.1871 21.1857H69.8341L69.0937 19Z" fill="white"/>
<path d="M40.9339 42.0001C40.8934 41.9769 40.8514 41.9562 40.8084 41.938C39.8378 42.1849 38.8257 42.2285 37.8371 42.066C36.8485 41.9035 35.9051 41.5384 35.0672 40.9941C35.3609 41.6362 35.7714 42.2192 36.2782 42.7142L36.3284 42.7577C38.3739 43.124 39.9111 42.8632 40.9339 42.0001" fill="white"/>
<path d="M41.7056 42.0995C40.7519 43.1923 39.2879 43.6705 37.3135 43.5339C38.2357 44.1208 39.3105 44.4293 40.4068 44.4218L41.1284 44.3846C41.4459 44.093 41.6863 43.7288 41.8285 43.3239C41.9707 42.919 42.0104 42.4858 41.9441 42.0622C41.871 42.0683 41.7975 42.0683 41.7245 42.0622" fill="white"/>
<path d="M43.1739 33.431C44.5543 36.2046 44.5773 38.6015 43.2429 40.6216C44.4978 40.3484 45.4452 39.3797 46.0225 37.6659C46.0225 37.5727 46.0727 37.4734 46.1041 37.3927C45.8861 36.27 45.3254 35.2406 44.4978 34.4431C44.1115 34.0406 43.665 33.6993 43.1739 33.431Z" fill="white"/>
<path d="M53.9534 32.6175C47.2607 32.6175 41.5404 31.3756 36.7927 28.8918L36.5104 28.7428L29.4014 36.455C34.0027 40.4374 33.6053 46.5414 28.2092 54.7669C27.8955 55.2451 27.5818 55.7418 27.3371 56.2137L66.2953 30.8913C62.2973 32.101 58.1338 32.6896 53.9534 32.6361V32.6175ZM44.9307 43.1923C44.341 43.7978 43.6332 44.2785 42.8501 44.6051C42.0671 44.9317 41.2252 45.0975 40.3755 45.0925C38.7688 45.1156 37.2177 44.511 36.0586 43.4097L35.8139 43.1923C34.6029 41.968 33.9247 40.323 33.9247 38.6097C33.9247 36.8965 34.6029 35.2514 35.8139 34.0271C36.4072 33.4253 37.1161 32.9471 37.899 32.6206C38.6818 32.294 39.5228 32.1258 40.3723 32.1258C41.2219 32.1258 42.0628 32.294 42.8457 32.6206C43.6285 32.9471 44.3375 33.4253 44.9307 34.0271C46.1447 35.2498 46.8249 36.8955 46.8249 38.6097C46.8249 40.3239 46.1447 41.9696 44.9307 43.1923" fill="white"/>
<path d="M29.1253 74.7616V70.5764L27.1112 71.8742C27.6527 72.9193 28.3298 73.89 29.1253 74.7616" fill="white"/>
<path d="M42.5213 41.8511C42.6597 42.6575 42.5064 43.4864 42.0884 44.1921C43.0046 43.9085 43.8335 43.4001 44.4978 42.7142L44.5354 42.6707C43.8367 42.5538 43.1849 42.2463 42.6531 41.7828C42.6156 41.8126 42.5731 41.8357 42.5276 41.8511" fill="white"/>
<path d="M73.1533 37.3181L70.4741 39.0133V41.6772L73.1533 39.9137V37.3181Z" fill="white"/>
<path d="M42.6719 40.2242C42.6719 40.2242 42.7284 40.2242 42.7409 40.2552C43.9958 38.2682 43.8578 35.8651 42.2892 33.0584C42.294 33.0443 42.294 33.029 42.2892 33.0149C41.6811 32.8196 41.0461 32.7191 40.4068 32.7169C40.3024 32.7105 40.1976 32.7105 40.0931 32.7169C41.0584 33.6988 41.792 34.8802 42.2411 36.1761C42.6903 37.4719 42.8438 38.8502 42.6907 40.2118" fill="white"/>
<path d="M40.9966 40.7582C41.1922 40.5762 41.4226 40.4347 41.6743 40.3422C41.7819 40.2921 41.8959 40.2566 42.0131 40.2366C42.3645 37.4982 41.4798 35.0268 39.3025 32.7851C38.2319 32.9841 37.2437 33.4893 36.4602 34.2382C36.4602 38.026 37.941 40.1869 41.0029 40.7334" fill="white"/>
<path d="M40.6578 41.3357C37.5833 40.7147 35.9771 38.5849 35.839 34.9212C35.0015 35.9553 34.5574 37.2475 34.5841 38.5724C34.5796 39.0647 34.6408 39.5553 34.7661 40.0317C35.5854 40.6832 36.5451 41.1397 37.571 41.3658C38.5969 41.5919 39.6616 41.5816 40.6829 41.3357" fill="white"/>
<path d="M43.1739 41.2488C43.158 41.2899 43.1346 41.3278 43.1049 41.3606C43.6505 41.8261 44.3484 42.0799 45.0688 42.0746C45.7836 41.1395 46.1831 40.0055 46.2107 38.8333C45.5143 40.2677 44.5104 41.0749 43.1739 41.2488" fill="white"/>
<path d="M68.6545 37.8584L65.4545 39.8143V42.1802L63.6851 43.3662C63.4781 43.478 63.3338 43.4656 63.2459 43.3289C63.1697 43.1309 63.1334 42.9199 63.1393 42.708L63.0702 38.5787C63.0903 38.3715 63.1759 38.1759 63.315 38.0198L65.1973 36.6227C65.5989 36.2936 65.8247 36.306 65.8247 36.6227V37.0635L68.6294 35.2007V32.7169C68.4789 32.3443 68.1526 32.2636 67.6632 32.4933L60.4977 37.2374C60.1094 37.6124 59.8691 38.1122 59.8201 38.647V46.7193C59.9706 47.7315 60.4475 48.0047 61.2632 47.5639L67.5753 43.5463C68.1499 43.0326 68.5306 42.3405 68.6545 41.5841V37.8584Z" fill="white"/>
<path d="M67.7573 79.5429C69.6428 79.3916 71.4996 78.9928 73.2788 78.3569V41.8511L67.7447 45.434L67.7573 79.5429Z" fill="white"/>
<path d="M56.733 82.7346C58.4509 81.6867 60.3127 80.8898 62.2608 80.3688V49.0355L56.733 52.6184V82.7346Z" fill="white"/>
<path d="M78.8004 53.3822V74.743C80.187 73.1893 81.2262 71.3631 81.8498 69.3841C83.4811 64.3006 82.7596 59.422 79.6851 54.7483C79.3776 54.2826 79.0576 53.8044 78.8004 53.3573" fill="white"/>
<path d="M81.5862 53.494C78.0788 48.0109 75.3118 41.4971 81.4796 36.9393C81.5263 36.9103 81.5658 36.8714 81.5953 36.8253C81.6248 36.7792 81.6436 36.7272 81.6502 36.6731C81.6568 36.619 81.6511 36.564 81.6335 36.5123C81.616 36.4606 81.5869 36.4135 81.5486 36.3743L72.0177 26.0603C71.9619 26.0049 71.8891 25.9695 71.8108 25.9593C71.7325 25.9492 71.653 25.9651 71.5847 26.0044C60.9181 31.7917 46.9449 31.9966 36.3159 26.0044C36.2483 25.9629 36.1682 25.9457 36.0893 25.9559C36.0105 25.9661 35.9375 26.003 35.883 26.0603L26.3457 36.3867C26.3074 36.4259 26.2784 36.473 26.2608 36.5247C26.2432 36.5764 26.2376 36.6314 26.2442 36.6855C26.2508 36.7397 26.2695 36.7917 26.299 36.8377C26.3286 36.8838 26.3681 36.9228 26.4148 36.9518C33.003 41.8201 29.3575 48.694 25.7873 54.3695C22.374 59.7904 22.2297 66.3477 24.7269 72.1474C26.6469 76.5996 30.5747 79.4684 35.0798 80.878C38.3174 81.8902 41.7559 81.7101 45.0374 82.5235C48.3039 83.4316 51.2863 85.1401 53.7087 87.4912C53.7781 87.554 53.8688 87.5888 53.9629 87.5888C54.0569 87.5888 54.1476 87.554 54.217 87.4912C58.5715 83.5046 63.1644 82.2752 68.8867 81.6604C72.6224 81.3202 76.1768 79.9089 79.1141 77.5994C86.3611 71.7562 86.1729 60.8336 81.5862 53.5188V53.494ZM67.1549 80.6483C62.2464 80.8738 57.5777 82.8143 53.9785 86.1251C50.3758 82.8198 45.7092 80.8801 40.8021 80.6483C32.5115 80.1142 27.2827 76.4713 25.1159 69.7195C23.3716 64.3379 24.1329 59.1633 27.3999 54.1956C32.7081 46.0984 32.8858 40.218 27.9332 36.5544L36.3535 27.4326L37.3198 27.9666C41.9211 30.3717 47.4824 31.5785 54.0036 31.5867C60.5249 31.595 66.0778 30.3883 70.6624 27.9666L71.6412 27.4326L80.0615 36.5544C75.1131 40.218 75.295 46.0984 80.6074 54.1956C83.8576 59.1633 84.6147 64.3379 82.8788 69.7195C80.6995 76.4837 75.4707 80.1267 67.1926 80.6483" fill="white"/>
<path d="M57.8875 47.0671L55.2083 48.7623V51.4138L57.8875 49.6503V47.0671Z" fill="white"/>
<path d="M38.8068 60.4921L38.7692 57.2259C38.2861 56.5304 37.5582 56.3938 36.5794 56.8409L33.6179 58.6603C33.3355 58.7721 33.1724 58.6603 33.1222 58.3312V57.3066C33.1066 57.2317 33.1069 57.1543 33.1231 57.0795C33.1393 57.0047 33.1711 56.934 33.2163 56.8719C33.3609 56.683 33.5422 56.5247 33.7496 56.4062L35.1865 55.4748C35.5253 55.2823 35.7449 55.3258 35.8139 55.6238V56.3752L38.8068 54.5123V52.5749C38.7644 52.3582 38.644 52.1641 38.468 52.0285C38.1699 51.911 37.8376 51.911 37.5394 52.0285L30.8885 56.1703C30.192 56.6235 29.8783 57.0831 29.9598 57.5798V61.0944C30.01 61.6284 30.1983 61.9141 30.5308 61.9451C31.0799 61.9045 31.6002 61.6863 32.0116 61.3242L34.7912 59.542C35.3182 59.3433 35.6445 59.3557 35.7575 59.5855V61.8706L33.5175 63.3174C33.1473 63.5286 32.9967 63.3733 33.0531 62.8828V61.6098L29.9159 63.5534V65.9316C29.9159 66.9314 30.33 67.2294 31.1708 66.8196L37.9096 62.4729C38.4931 62.1563 38.7629 61.4856 38.7504 60.4859" fill="white"/>
<path d="M40.5198 60.933L43.2053 59.1571V56.5739L40.5198 58.2691V60.933Z" fill="white"/>
<path d="M45.0813 49.1845L46.3864 48.3959V55.1333L45.1252 55.9964L45.1503 57.9089L51.3558 53.9721V52.0161L49.7056 53.0841V50.5444L51.3244 49.4888V50.8549L52.9997 49.731V45.5085L51.4625 46.5765V47.3403L49.668 48.3773V46.2288L51.9017 44.7385L52.4852 45.0304L54.4742 43.7326V41.019L45.0813 47.1478V49.1845Z" fill="white"/>
<path d="M45.6774 80.3812C47.6177 80.9073 49.4742 81.6994 51.1927 82.7346V56.2137L45.6648 59.7966L45.6774 80.3812Z" fill="white"/>
<path d="M34.628 78.3693C36.4115 78.9971 38.2695 79.3937 40.1559 79.5492V63.4044L34.628 66.9873V78.3693Z" fill="white"/>
</g>
<defs>
<radialGradient id="paint0_radial_213_524" cx="0" cy="0" r="1" gradientUnits="userSpaceOnUse" gradientTransform="translate(54 54) rotate(90) scale(62)">
<stop stop-color="#3A2F00"/>
<stop offset="1" stop-color="#0F1215"/>
</radialGradient>
<clipPath id="clip0_213_524">
<rect width="108" height="108" fill="white"/>
</clipPath>
</defs>
</svg>
